<svg width="17" height="11" viewBox="0 0 17 11" fill="none" xmlns="http://www.w3.org/2000/svg">
<g clip-path="url(#clip0_6006_396)">
<path d="M17.0001 0.885463C17.0001 0.333775 16.6651 0 16.1127 0C14.1049 0 2.92912 0 0.92523 0C0.32053 0 0.000122938 0.318429 0.000122938 0.919992C0.000122938 3.97614 0.000122938 7.0323 0.000122938 10.0892C0.000122938 10.133 -0.000645424 10.1767 0.00165966 10.2197C0.0262472 10.6493 0.345117 10.9716 0.7754 10.9954L16.1127 11C16.6674 10.9954 16.9994 10.667 16.9994 10.113C16.9994 7.03767 16.9994 3.96157 16.9994 0.88623L17.0001 0.885463ZM16.3678 9.93192C16.3678 10.2764 16.2287 10.4153 15.8822 10.4153C12.0096 10.4153 4.98372 10.4153 1.11041 10.4153C0.773863 10.4153 0.632485 10.2741 0.632485 9.93882C0.632485 6.97858 0.632485 4.01835 0.632485 1.05887C0.632485 0.72433 0.7754 0.58238 1.11041 0.58238C3.04898 0.58238 13.9474 0.58238 15.8822 0.58238C16.2264 0.58238 16.3678 0.722796 16.3678 1.06578C16.3678 4.02141 16.3678 6.97628 16.3678 9.93192Z" fill="#172832"/>
<path d="M16.3678 4.36258C16.6724 4.36258 16.9194 4.11593 16.9194 3.81166C16.9194 3.5074 16.6724 3.26074 16.3678 3.26074C16.0631 3.26074 15.8161 3.5074 15.8161 3.81166C15.8161 4.11593 16.0631 4.36258 16.3678 4.36258Z" fill="#172832"/>
<path d="M16.3678 7.73856C16.6724 7.73856 16.9194 7.4919 16.9194 7.18764C16.9194 6.88337 16.6724 6.63672 16.3678 6.63672C16.0631 6.63672 15.8161 6.88337 15.8161 7.18764C15.8161 7.4919 16.0631 7.73856 16.3678 7.73856Z" fill="#172832"/>
<path d="M8.46292 2.55091C6.83937 2.57547 5.5247 3.90443 5.54775 5.49734C5.57234 7.16929 6.90237 8.476 8.55051 8.44914C10.1664 8.42229 11.478 7.07491 11.4534 5.46819C11.428 3.82693 10.0949 2.52559 8.46369 2.55015L8.46292 2.55091ZM8.52515 7.90206C7.20127 7.91357 6.1125 6.85086 6.09406 5.52957C6.07562 4.20675 7.14057 3.11258 8.45984 3.098C9.81216 3.08265 10.8886 4.13769 10.9048 5.49274C10.9201 6.79408 9.83752 7.89055 8.52439 7.90206H8.52515Z" fill="#172832"/>
<path d="M8.39896 5.2041H6.85225C6.78435 5.2041 6.72931 5.25907 6.72931 5.32687V5.66371C6.72931 5.73152 6.78435 5.78648 6.85225 5.78648H8.39896C8.46686 5.78648 8.5219 5.73152 8.5219 5.66371V5.32687C8.5219 5.25907 8.46686 5.2041 8.39896 5.2041Z" fill="#172832"/>
</g>
<defs>
<clipPath id="clip0_6006_396">
<rect width="17" height="11" fill="white"/>
</clipPath>
</defs>
</svg>
