<svg width="343" height="166" viewBox="0 0 343 166" fill="none" xmlns="http://www.w3.org/2000/svg">
<path d="M123.361 77.9779L148.995 68.5519C150.896 67.8535 153.015 68.7729 153.791 70.6341L162.132 90.6255C162.987 92.6713 161.884 95.003 159.756 95.6559L133.06 103.833C131.152 104.416 129.117 103.424 128.415 101.565L121.248 82.5791C120.548 80.7281 121.496 78.6653 123.361 77.9779Z" fill="#D9D9D9"/>
<path d="M140.356 113.373L165.144 106.81C167.012 106.315 168.952 107.316 169.618 109.117L177.811 131.216C178.532 133.158 177.516 135.312 175.553 136.005L152.789 144.05C150.93 144.707 148.877 143.818 148.098 142.018L137.878 118.439C136.975 116.355 138.144 113.958 140.353 113.373L140.356 113.373Z" fill="#D9D9D9"/>
<path d="M106.883 77.7005L117.116 106.988C117.778 108.814 116.846 110.828 115.015 111.531L97.1707 118.388C95.3635 119.082 93.3237 118.254 92.5369 116.505L80.9885 89.5477C80.1951 87.7839 80.9617 85.7181 82.7207 84.8734L101.881 75.6855C103.824 74.7527 106.155 75.6922 106.883 77.7005Z" fill="#D9D9D9"/>
<path d="M58.883 62.1155L69.1157 91.4029C69.7782 93.229 68.8457 95.2427 67.0149 95.9455L49.1707 102.803C47.3635 103.498 45.3237 102.669 44.5369 100.92L32.9885 73.9627C32.1951 72.199 32.9617 70.1331 34.7207 69.2885L53.8806 60.1005C55.824 59.1677 58.1549 60.1073 58.883 62.1155Z" fill="#D9D9D9"/>
<path d="M98.3848 131.262L105.967 156.51C106.519 158.347 108.463 159.365 110.267 158.763L131.587 151.644C133.506 151.002 134.445 148.817 133.595 146.965L123.107 121.435C122.384 119.857 120.604 119.08 118.969 119.628L100.471 125.841C98.7303 126.423 97.8517 129.485 98.3826 131.258L98.3848 131.262Z" fill="#D9D9D9"/>
<path d="M50.3848 115.677L57.9666 140.925C58.5191 142.762 60.4627 143.78 62.2671 143.178L83.5872 136.059C85.5061 135.417 86.445 133.232 85.595 131.38L75.1073 105.851C74.3842 104.272 72.6036 103.495 70.9688 104.043L52.4711 110.256C50.7303 110.839 49.8517 113.9 50.3826 115.673L50.3848 115.677Z" fill="#D9D9D9"/>
<path d="M201.216 134.293C202.39 136.824 205.198 138.158 207.895 137.46C216.336 135.279 234.868 131.038 251.04 131.091C272.792 131.164 274.122 131.666 288.254 133.214C295.247 133.979 298.727 131.418 299.76 130.984C300.033 130.868 300.44 130.706 300.704 130.574L335.081 113.42C338.35 111.79 340.409 108.436 340.387 104.776L339.841 11.594C339.809 6.29589 335.499 2.02445 330.21 2.05549L217.695 2.7158C215.923 2.7262 214.188 3.22992 212.684 4.17019L185.039 21.4516C181.844 23.4494 180.404 27.3554 181.529 30.9511C181.539 30.9825 181.546 31.0115 181.553 31.0429L194.887 94.0245C194.901 94.0898 194.919 94.1526 194.943 94.2153C195.252 95.0361 197.339 101.343 189.308 103.592C188.53 103.809 188.117 104.656 188.443 105.397L201.216 134.291L201.216 134.293Z" fill="#D9D9D9"/>
<path d="M131.257 22.8439L145.909 54.5162C146.597 56.0643 145.872 57.8843 144.319 58.5023L117.826 69.0402C116.317 69.6408 114.619 68.8661 114.052 67.3173L103.954 40.2381C103.482 38.9546 103.935 37.5092 105.047 36.7416L126.985 21.6105C128.475 20.5835 130.514 21.1696 131.257 22.8439Z" fill="#D9D9D9"/>
<path d="M148.368 15.3401L163.244 6.7423C165.995 5.11529 169.515 6.68662 170.175 9.83842L186.373 93.9458C186.404 96.6357 186.041 97.374 185.692 97.7945C183.819 100.055 177.74 101.975 175.692 96.1731L146.426 21.2602C145.511 19.0758 146.339 16.5413 148.365 15.3402L148.368 15.3401Z" fill="#D9D9D9"/>
<path d="M92.693 46.8652L98.5927 61.6248C99.1696 63.2308 98.4761 65.0195 96.9767 65.7963L77.1639 76.0753C75.403 76.9898 73.2478 76.1567 72.5307 74.2875L66.3088 59.8674C65.6914 58.2572 66.3697 56.434 67.8796 55.6377L88.0147 45.0215C89.8032 44.0787 92.0034 44.9462 92.6931 46.8696L92.693 46.8652Z" fill="#D9D9D9"/>
<path d="M44.693 31.2803L50.5927 46.0398C51.1696 47.6459 50.4761 49.4346 48.9767 50.2113L29.1639 60.4903C27.403 61.4049 25.2478 60.5717 24.5307 58.7026L18.3088 44.2824C17.6914 42.6723 18.3697 40.849 19.8796 40.0528L40.0147 29.4366C41.8032 28.4937 44.0034 29.3612 44.6931 31.2846L44.693 31.2803Z" fill="#D9D9D9"/>
<path d="M164.496 48.9874C161.579 36.3374 148.547 28.3098 136.286 31.832C126.694 34.586 120.898 41.0901 119.267 51.2206C118.745 54.4563 118.993 57.7181 119.974 60.8627C120.675 63.1089 121.694 65.2248 122.808 67.2952C127.025 75.1404 132.356 82.1653 138.108 88.8778C138.993 89.9064 140.012 90.8114 141.49 90.9742C143.452 91.1825 144.776 90.1017 145.929 88.754C148.069 86.2605 150.171 83.7344 152.152 81.1041C156.057 75.9087 159.738 70.57 162.375 64.5607C163.91 61.0646 164.999 57.4512 164.999 52.8091C165.012 52.0214 164.846 50.4979 164.496 48.9939V48.9874ZM142.018 63.0698C137.388 63.0568 133.745 59.3132 133.745 54.5605C133.745 49.8013 137.42 46.0642 142.095 46.0772C146.732 46.0902 150.375 49.8338 150.369 54.58C150.369 59.3457 146.687 63.0763 142.018 63.0633V63.0698Z" fill="#009080"/>
<rect x="0.5" y="0.5" width="342" height="158" rx="14.5" stroke="#009080"/>
</svg>
