<svg width="159" height="48" viewBox="0 0 159 48" fill="none" xmlns="http://www.w3.org/2000/svg">
<path d="M30.6813 14.6025H28.8295C28.2486 14.6025 27.7402 15.0724 27.7402 15.6869V22.1929H21.7491V15.6869C21.7491 15.1086 21.2771 14.6025 20.6598 14.6025H18.808C18.2271 14.6025 17.7188 15.0724 17.7188 15.6869V32.4941C17.7188 33.1086 18.1908 33.5784 18.808 33.5784H20.6598C21.2408 33.5784 21.7491 33.0724 21.7491 32.4941V25.7351H27.7765V32.4941C27.7765 33.1086 28.2486 33.5784 28.8658 33.5784H30.7176C31.2986 33.5784 31.8069 33.1086 31.8069 32.4941V15.6869C31.7706 15.1086 31.2623 14.6025 30.6813 14.6025Z" fill="#1E1E1E"/>
<path d="M52.3586 32.1327L46.767 15.3254C46.6217 14.8917 46.186 14.6025 45.7503 14.6025H43.9348C43.4628 14.6025 43.0634 14.8917 42.9181 15.3254L37.1449 32.0965C36.9997 32.4218 37.0723 32.8194 37.2901 33.1086C37.508 33.3616 37.8348 33.5423 38.1616 33.5423H39.9771C40.4491 33.5423 40.8848 33.2531 40.9937 32.7833L42.555 27.8315H46.658L48.2193 32.7833C48.3646 33.2531 48.764 33.5423 49.236 33.5423H51.2694C51.6325 33.5423 51.9592 33.3616 52.1771 33.0724C52.395 32.8194 52.4676 32.458 52.3586 32.1327ZM46.1134 24.3977H43.5354C43.4628 24.3977 43.3902 24.3254 43.4265 24.2531L44.7336 20.2411C44.7699 20.1327 44.9152 20.1327 44.9515 20.2411L46.2223 24.2531C46.2223 24.3254 46.186 24.3977 46.1134 24.3977Z" fill="#1E1E1E"/>
<path d="M70.513 14.6025H68.6975C68.0803 14.6025 67.6082 15.0724 67.6082 15.6869V25.9519C67.6082 28.5182 67.0999 29.2049 66.8457 29.3857C66.2648 29.8556 65.357 30.0724 64.0862 30.0724C62.9606 30.0724 62.0892 29.8556 61.5082 29.3857C61.2904 29.2049 60.7457 28.5182 60.7457 25.9158V15.6869C60.7457 15.1086 60.2737 14.6025 59.6564 14.6025H57.8409C57.2237 14.6025 56.7516 15.0724 56.7516 15.6869V25.8796C56.7516 28.9519 57.3689 31.0122 58.6034 32.1688C59.8017 33.2893 61.6171 33.8676 63.9773 33.8676C66.3374 33.8676 68.2255 33.3254 69.5326 32.2411C70.9124 31.0845 71.6023 29.0242 71.6023 25.8796V15.6869C71.6023 15.1086 71.094 14.6025 70.513 14.6025Z" fill="#1E1E1E"/>
<path d="M89.2488 24.5424C88.5226 23.675 87.288 22.9159 85.4726 22.2653L83.8386 21.5786C83.1487 21.3256 82.4589 20.9641 81.8053 20.4942C81.3696 20.2051 81.188 19.8436 81.188 19.3015C81.188 18.94 81.3333 18.6509 81.6964 18.3979C82.1684 18.0726 82.7857 17.8918 83.5482 17.8918C84.2744 17.8918 84.8553 18.0364 85.3273 18.2894C85.8357 18.5786 86.3077 18.9039 86.7434 19.3015C86.9613 19.5183 87.2154 19.5545 87.5059 19.5906H87.5422H87.5785C87.869 19.5545 88.1232 19.4461 88.341 19.2292L89.394 18.0003C89.7571 17.6027 89.7571 16.9521 89.3577 16.5183C88.6315 15.7955 87.7964 15.2171 86.8886 14.7834C85.9809 14.3858 84.8553 14.1689 83.5482 14.1689C81.8053 14.1689 80.3166 14.6388 79.1184 15.5424C77.8475 16.5183 77.194 17.8195 77.194 19.4822C77.194 21.0726 77.7749 22.3738 78.8642 23.3497C79.8446 24.2171 81.0428 24.9039 82.4226 25.3738L83.4029 25.7714C84.4922 26.1689 85.291 26.5665 85.8357 26.9641C86.1625 27.2171 86.3077 27.6147 86.3077 28.193C86.3077 28.8436 86.1261 29.2412 85.7267 29.5665C85.2547 29.928 84.6011 30.1087 83.7297 30.1087C82.9672 30.1087 82.2773 29.928 81.7327 29.6027C81.0791 29.2051 80.5345 28.7714 80.135 28.3376C79.9535 28.1208 79.6993 27.9762 79.3725 27.9762C79.0821 27.94 78.7916 28.0485 78.5737 28.2653L77.194 29.5665C76.9761 29.7473 76.8309 30.0364 76.8309 30.3256C76.8309 30.6147 76.9398 30.9039 77.1213 31.0846C77.5571 31.5545 77.9928 31.9521 78.5011 32.3135C78.9731 32.6388 79.4815 32.9641 80.0624 33.181C80.6071 33.3979 81.188 33.5424 81.8053 33.6509C82.4226 33.7593 83.0761 33.7955 83.7297 33.7955C85.5452 33.7955 87.1065 33.2894 88.3773 32.3135C89.7208 31.2653 90.4107 29.7834 90.4107 27.94C90.3744 26.6027 89.975 25.4461 89.2488 24.5424Z" fill="#1E1E1E"/>
<path d="M106.205 29.9278H99.6697V15.6869C99.6697 15.1086 99.1976 14.6025 98.5804 14.6025H96.7649C96.1476 14.6025 95.6756 15.0724 95.6756 15.6869V32.4941C95.6756 33.0724 96.1476 33.5784 96.7649 33.5784H106.205C106.786 33.5784 107.295 33.1086 107.295 32.4941V31.0122C107.295 30.3977 106.786 29.9278 106.205 29.9278Z" fill="#1E1E1E"/>
<path d="M121.673 29.9279H115.247V25.3736H119.894C120.475 25.3736 120.983 24.9038 120.983 24.2893V22.8797C120.983 22.3013 120.511 21.7953 119.894 21.7953H115.247V18.217H121.347C121.927 18.217 122.436 17.711 122.436 17.1327V15.6507C122.436 15.0724 121.964 14.5664 121.347 14.5664H112.342C111.724 14.5664 111.252 15.0363 111.252 15.6507V32.458C111.252 33.0363 111.724 33.5423 112.342 33.5423H121.673C122.254 33.5423 122.763 33.0724 122.763 32.458V30.976C122.726 30.3977 122.254 29.9279 121.673 29.9279Z" fill="#1E1E1E"/>
<path d="M141.026 31.9158L136.96 25.4098C137.577 25.0483 138.158 24.5423 138.63 23.964C139.501 22.9519 139.937 21.723 139.937 20.4218C139.937 18.6507 139.356 17.2411 138.231 16.1929C137.105 15.1447 135.507 14.6387 133.438 14.6387H128.863C128.282 14.6387 127.773 15.1086 127.773 15.723V32.5302C127.773 33.1447 128.245 33.6146 128.863 33.6146H130.714C131.295 33.6146 131.804 33.1447 131.804 32.5302V26.3857C132.348 26.3857 132.711 26.3857 132.966 26.3857L136.996 33.0363C137.178 33.3616 137.541 33.5784 137.94 33.5784H140.119C140.518 33.5784 140.881 33.3616 141.063 33.0001C141.244 32.6387 141.208 32.2411 141.026 31.9158ZM135.907 20.4579C135.907 21.1808 135.653 21.6869 135.108 22.1206C134.527 22.5905 133.619 22.8435 132.457 22.8435H131.804V18.217H132.748C133.982 18.217 134.89 18.3977 135.326 18.7592C135.689 19.0483 135.907 19.6266 135.907 20.4579Z" fill="#1E1E1E"/>
<path d="M8.56908 3.54217C9.0048 3.54217 9.36789 3.18072 9.36789 2.74699V0.795181C9.36789 0.361446 9.0048 0 8.56908 0H0.798813C0.363097 0 0 0.361446 0 0.795181V47.2048C0 47.6386 0.363097 48 0.798813 48H8.56908C9.0048 48 9.36789 47.6386 9.36789 47.2048V45.253C9.36789 44.8193 9.0048 44.4578 8.56908 44.4578H3.84882V3.54217H8.56908Z" fill="#009080"/>
<path d="M158.201 0H150.431C149.995 0 149.632 0.361446 149.632 0.795181V2.74699C149.632 3.18072 149.995 3.54217 150.431 3.54217H155.151V44.4578H150.431C149.995 44.4578 149.632 44.8193 149.632 45.253V47.2048C149.632 47.6386 149.995 48 150.431 48H158.201C158.637 48 159 47.6386 159 47.2048V0.795181C159 0.361446 158.637 0 158.201 0Z" fill="#009080"/>
</svg>
