<svg width="238" height="74" viewBox="0 0 238 74" fill="none" xmlns="http://www.w3.org/2000/svg">
<g clip-path="url(#clip0_12055_320)">
<path d="M45.9151 22.9111H43.165C42.2737 22.9111 41.5508 23.6477 41.5508 24.5491V34.432H32.5341V24.5491C32.5341 23.6477 31.8058 22.9111 30.909 22.9111H28.1534C27.2621 22.9111 26.5392 23.6477 26.5392 24.5491V50.0917C26.5392 50.9986 27.2621 51.7407 28.1534 51.7407H30.909C31.7895 51.7407 32.5341 50.9876 32.5341 50.0917V39.8406H41.5508V50.0917C41.5508 50.9986 42.2737 51.7407 43.165 51.7407H45.9151C46.8065 51.7407 47.5293 51.0041 47.5293 50.0917V24.5491C47.5293 23.6477 46.8065 22.9111 45.9151 22.9111Z" fill="#1E1E1E"/>
<path d="M78.3573 49.5695L69.9765 24.0104C69.7482 23.3509 69.1286 22.9111 68.4438 22.9111H65.7861C65.0904 22.9111 64.4871 23.3454 64.2479 24.0159L55.628 49.5255C55.4378 50.0312 55.5138 50.6084 55.8454 51.0811C56.1606 51.4933 56.6498 51.7407 57.1444 51.7407H59.8673C60.5793 51.7407 61.2043 51.2789 61.4163 50.5864L63.7642 43.0286H69.9058L72.2429 50.5864C72.4603 51.2789 73.0799 51.7407 73.7919 51.7407H76.8246C77.3518 51.7407 77.8518 51.4768 78.1671 51.0261C78.4497 50.5809 78.5203 50.0367 78.3573 49.575M69.009 37.7794H65.1393C65.0197 37.7794 64.9328 37.6639 64.9708 37.5485L66.9437 31.4418C66.9981 31.2769 67.2263 31.2769 67.2753 31.4418L69.1775 37.5485C69.2156 37.6639 69.1286 37.7794 69.009 37.7794Z" fill="#1E1E1E"/>
<path d="M105.532 22.9111H102.809C101.912 22.9111 101.184 23.6477 101.184 24.5491V40.1594C101.184 44.0455 100.401 45.0953 100.059 45.3701C99.211 46.0627 97.8305 46.42 95.9554 46.42C94.2651 46.42 92.9716 46.0627 92.1074 45.3646C91.7705 45.0953 90.9824 44.04 90.9824 40.0879V24.5546C90.9824 23.6532 90.2541 22.9166 89.3627 22.9166H86.6235C85.7267 22.9166 84.9984 23.6532 84.9984 24.5546V40.033C84.9984 44.6941 85.9061 47.8161 87.7648 49.5805C89.5747 51.2844 92.2759 52.1474 95.7924 52.1474C99.3089 52.1474 102.14 51.3174 104.086 49.6849C106.152 47.9425 107.157 44.771 107.157 39.989V24.5546C107.157 23.6532 106.429 22.9166 105.537 22.9166" fill="#1E1E1E"/>
<path d="M133.567 37.9879C132.496 36.6742 130.648 35.5364 127.925 34.5141L125.49 33.4752C124.463 33.0795 123.436 32.5298 122.441 31.8427C121.778 31.381 121.495 30.8314 121.495 30.0124C121.495 29.4352 121.729 29.023 122.284 28.6273C122.979 28.1271 123.903 27.8687 125.034 27.8687C126.164 27.8687 127.017 28.0611 127.697 28.4459C128.474 28.8856 129.186 29.4023 129.816 29.9629C130.143 30.2927 130.545 30.3697 130.963 30.4191H131.001H131.034C131.48 30.3862 131.865 30.1938 132.154 29.864L133.751 28.0226C134.3 27.396 134.273 26.4121 133.686 25.78C132.594 24.6642 131.355 23.7903 130.001 23.1637C128.632 22.5535 126.947 22.2402 124.985 22.2402C122.376 22.2402 120.142 22.9383 118.354 24.3069C116.435 25.78 115.463 27.7918 115.463 30.2927C115.463 32.7937 116.305 34.7065 117.963 36.1905C119.408 37.4987 121.202 38.5431 123.284 39.2851L124.74 39.9007C126.365 40.5053 127.594 41.1155 128.382 41.7256C128.871 42.0939 129.099 42.6985 129.099 43.6164C129.099 44.6003 128.844 45.2214 128.251 45.6941C127.555 46.2438 126.555 46.5241 125.278 46.5241C124.137 46.5241 123.126 46.2713 122.278 45.7711C121.289 45.1829 120.479 44.5288 119.87 43.8363C119.588 43.512 119.191 43.3141 118.751 43.2866C118.305 43.2536 117.865 43.4075 117.544 43.7044L115.463 45.6721C115.136 45.9689 114.941 46.4032 114.941 46.8209C114.924 47.2661 115.082 47.7004 115.37 47.9972C116.011 48.7007 116.702 49.3219 117.419 49.8495C118.099 50.3662 118.881 50.8114 119.756 51.1852C120.544 51.5095 121.419 51.7568 122.354 51.9162C123.278 52.0701 124.256 52.1471 125.262 52.1471C127.963 52.1471 130.295 51.3996 132.208 49.921C134.235 48.3325 135.262 46.0899 135.262 43.2536C135.262 41.1375 134.697 39.3731 133.578 37.9989" fill="#1E1E1E"/>
<path d="M158.97 46.2001H149.215V24.5491C149.215 23.6477 148.486 22.9111 147.595 22.9111H144.85C143.943 22.9111 143.231 23.6312 143.231 24.5491V50.0917C143.231 50.9986 143.959 51.7352 144.85 51.7352H158.97C159.867 51.7352 160.596 50.9986 160.596 50.0917V47.8436C160.596 46.9422 159.867 46.2056 158.97 46.2056" fill="#1E1E1E"/>
<path d="M182.107 46.2001H172.492V39.2799H179.449C180.346 39.2799 181.074 38.5434 181.074 37.642V35.4983C181.074 34.5969 180.346 33.8603 179.449 33.8603H172.492V28.4352H181.623C182.503 28.4352 183.248 27.6822 183.248 26.7917V24.5491C183.248 23.6477 182.52 22.9111 181.623 22.9111H168.133C167.22 22.9111 166.508 23.6312 166.508 24.5491V50.0917C166.508 50.9986 167.236 51.7352 168.133 51.7352H182.107C183.003 51.7352 183.732 50.9986 183.732 50.0917V47.8436C183.732 46.9422 183.003 46.2056 182.107 46.2056" fill="#1E1E1E"/>
<path d="M211.069 49.2284L204.992 39.329C205.927 38.7684 206.775 38.0264 207.52 37.1249C208.83 35.5639 209.493 33.739 209.493 31.7163C209.493 29.0395 208.634 26.8738 206.933 25.2798C205.264 23.7078 202.851 22.9053 199.764 22.9053H192.9C192.008 22.9053 191.285 23.6418 191.285 24.5433V50.0858C191.285 50.9928 192.008 51.7293 192.9 51.7293H195.65C196.541 51.7293 197.269 50.9928 197.269 50.0858V40.8241C198.063 40.8131 198.617 40.8021 199.019 40.8021L205.041 50.9268C205.329 51.427 205.862 51.7348 206.433 51.7348H209.688C210.292 51.7348 210.841 51.405 211.123 50.8663C211.395 50.3332 211.373 49.7176 211.069 49.2284ZM203.427 31.7987C203.427 32.8761 203.063 33.6621 202.253 34.3491C201.367 35.0802 200.03 35.454 198.275 35.454H197.275V28.3744H198.71C200.563 28.3744 201.895 28.6657 202.563 29.2098C203.139 29.6716 203.427 30.54 203.427 31.7932" fill="#1E1E1E"/>
<path d="M12.8212 6.07512C13.4789 6.07512 14.0224 5.53096 14.0224 4.86038V1.89772C14.0224 1.23264 13.4789 0.688477 12.8212 0.688477H1.19571C0.532633 0.688477 0 1.23264 0 1.89772V72.4737C0 73.1388 0.532633 73.694 1.19571 73.694H12.8212C13.4789 73.694 14.0224 73.1388 14.0224 72.4737V69.5111C14.0224 68.8515 13.4789 68.3018 12.8212 68.3018H5.76657V6.07512H12.8212Z" fill="#009080"/>
<path d="M236.799 0.688477H225.173C224.51 0.688477 223.967 1.23264 223.967 1.90322V4.86038C223.967 5.53096 224.51 6.07512 225.173 6.07512H232.223V68.3018H225.173C224.51 68.3018 223.967 68.846 223.967 69.5111V72.4737C223.967 73.1388 224.51 73.694 225.173 73.694H236.799C237.451 73.694 238 73.1388 238 72.4737V1.90322C238 1.23264 237.451 0.688477 236.799 0.688477Z" fill="#009080"/>
</g>
<defs>
<clipPath id="clip0_12055_320">
<rect width="238" height="73" fill="white" transform="translate(0 0.688477)"/>
</clipPath>
</defs>
</svg>
