<svg width="197" height="197" viewBox="0 0 197 197" fill="none" xmlns="http://www.w3.org/2000/svg">
<path d="M103.835 197L102.392 172.546C103.118 172.507 103.844 172.448 104.571 172.39L106.72 196.794C105.758 196.882 104.796 196.951 103.835 197ZM70.4139 193.287C69.4913 193.022 68.5687 192.738 67.6559 192.444L75.1448 169.117C75.8417 169.343 76.5386 169.549 77.2355 169.754L70.4041 193.287H70.4139ZM139.267 188.183L129.001 165.933C129.668 165.63 130.326 165.316 130.973 164.993L141.858 186.948C141.005 187.369 140.131 187.781 139.257 188.183H139.267ZM37.8374 176.857C37.0718 176.269 36.3063 175.672 35.5603 175.064L51.0388 156.048C51.5983 156.509 52.1774 156.959 52.7467 157.4L37.8374 176.857ZM169.046 167.158L151.418 150.111C151.929 149.582 152.429 149.053 152.92 148.514L171.019 165.061C170.371 165.767 169.714 166.462 169.037 167.158H169.046ZM13.4173 149.817C12.9167 148.994 12.426 148.171 11.945 147.329L33.2439 135.161C33.6071 135.788 33.9703 136.415 34.353 137.032L13.4173 149.817ZM189.197 136.826L166.593 127.274C166.877 126.608 167.152 125.932 167.407 125.256L190.286 134.132C189.933 135.033 189.57 135.935 189.187 136.826H189.197ZM0.471127 115.753C0.30427 114.802 0.147227 113.852 0 112.892L24.2827 109.306C24.3907 110.021 24.5084 110.737 24.636 111.452L0.471127 115.753ZM196.961 101.214L172.423 100.508C172.442 99.7834 172.452 99.0584 172.452 98.3335H197C197 99.3034 196.99 100.263 196.961 101.224V101.214ZM24.8422 84.0297L0.755767 79.3467C0.942255 78.3964 1.13856 77.4558 1.34468 76.5251L25.2937 81.8939C25.1366 82.5993 24.9894 83.3145 24.8422 84.0297ZM168.565 74.5461C168.33 73.8603 168.085 73.1745 167.839 72.4887L190.856 63.9848C191.189 64.8862 191.513 65.7973 191.818 66.7084L168.565 74.5461ZM34.9812 58.5964L14.2516 45.4781C14.7718 44.665 15.292 43.8616 15.8318 43.0582L36.1787 56.7644C35.7664 57.3718 35.3738 57.9792 34.9812 58.5964ZM155.148 50.6706C154.677 50.1121 154.206 49.5635 153.725 49.0149L172.089 32.7615C172.727 33.4767 173.355 34.2115 173.974 34.9462L155.148 50.6608V50.6706ZM53.6987 38.5222L39.0938 18.83C39.8692 18.252 40.6544 17.6936 41.4494 17.1449L55.4654 37.2584C54.8667 37.6698 54.2778 38.0911 53.6987 38.5222ZM133.967 33.222C133.329 32.8693 132.691 32.5264 132.043 32.1933L143.282 10.4143C144.145 10.8552 144.999 11.3156 145.843 11.7859L133.957 33.222H133.967ZM78.374 26.5795L71.9451 2.93913C72.8775 2.6844 73.81 2.44927 74.7522 2.22394L80.4941 26.0407C79.7874 26.2072 79.0807 26.3934 78.3838 26.5795H78.374ZM107.918 24.6397C107.201 24.5417 106.475 24.4633 105.748 24.385L108.291 0C109.253 0.097971 110.214 0.215536 111.166 0.342898L107.918 24.6299V24.6397Z" fill="#009080"/>
<g clip-path="url(#clip0_30_621)">
<path d="M124.402 69.5293L119.391 74.599C108.355 85.7881 99.842 95.176 89.7256 105.649L79.4442 96.846L74.0323 92.2177L64.8945 103.156L70.3064 107.785L85.6343 120.906L90.6099 125.153L95.2201 120.489C107.942 107.594 116.986 97.3112 129.413 84.7026L134.424 79.6329L124.402 69.5293Z" fill="#009080"/>
</g>
<defs>
<clipPath id="clip0_30_621">
<rect width="69.5294" height="55.6235" fill="white" transform="translate(64.8945 69.5293)"/>
</clipPath>
</defs>
</svg>
