<svg width="65" height="65" viewBox="0 0 65 65" fill="none" xmlns="http://www.w3.org/2000/svg">
<path d="M64.7188 32.0834C64.7188 49.767 50.0115 64.1528 32.3419 64.1528H32.3279C26.9551 64.1528 21.68 62.8114 16.9989 60.2542L0 64.7188L4.54841 48.1041C1.7467 43.2413 0.272485 37.7217 0.272485 32.0694C0.272485 14.3858 14.6653 0 32.3489 0C40.9147 0 48.9775 3.33969 55.0281 9.40424C61.0786 15.4758 64.7188 23.5176 64.7188 32.0834Z" fill="#3AD8AB"/>
<path d="M46.3614 39.0778C46.5392 39.3695 46.5392 40.7767 45.9467 42.4246C45.3542 44.0724 42.5027 45.5672 41.1251 45.7713C38.8587 46.0994 37.0812 45.939 32.541 44.0068C25.3716 40.959 20.6982 33.8498 20.3353 33.3832C19.9872 32.9165 17.4245 29.5625 17.4245 26.1064C17.4245 22.6429 19.2687 20.9367 19.9205 20.2295C20.5797 19.5295 21.3573 19.3545 21.8314 19.3545C22.3054 19.3545 22.7868 19.3545 23.1941 19.3764C23.6311 19.3982 24.2236 19.2087 24.8013 20.5795C25.3938 21.9867 26.8233 25.4501 27.001 25.8074C27.1788 26.1647 27.2973 26.5657 27.0677 27.0397C25.7049 29.7302 24.231 29.6427 24.9643 30.8822C27.7343 35.5633 30.4895 37.1893 34.6889 39.2528C35.3999 39.6101 35.8221 39.5445 36.2369 39.0778C36.659 38.5966 38.0292 37.0216 38.5032 36.3144C38.9772 35.6071 39.4587 35.7165 40.1104 35.9571C40.7696 36.1831 44.2876 37.882 44.9913 38.2393C45.7171 38.582 46.1985 38.7643 46.3614 39.0778Z" fill="white"/>
</svg>
